<svg xmlns="http://www.w3.org/2000/svg" width="1.6in" height="1.6in" viewBox="0 0 116.9 116.9"><circle cx="58.5" cy="58.5" r="58.5"/><path fill="#fff" d="M98.9 55.2a40.1 40.1 0 0 0-16.1-18.1 40.6 40.6 0 0 0-5.1-2.6A38.6 38.6 0 0 0 53 32.8l-2.7.8-2.7 1.1a38.4 38.4 0 0 0-18.3 16.6 41.2 41.2 0 0 0-2.4 5.2 40.5 40.5 0 0 0-1.4 24.2 24.7 24.7 0 0 0 1.1 3.6l73.7-25.6a36.5 36.5 0 0 0-1.4-3.5zM30.4 78a38.3 38.3 0 0 1 1.4-19.2l22.4 10.9zm27.8-12.7L34.1 53.6a32.8 32.8 0 0 1 15.4-13.7zM54.9 38a31.8 31.8 0 0 1 20.5 1.2L63.7 63.4zm14.7 26.3l10.9-22.4A39.9 39.9 0 0 1 93.3 56z"/></svg>