<svg xmlns="http://www.w3.org/2000/svg" width="1.6in" height="1.6in" viewBox="0 0 116.9 116.9"><path d="M115.4 58.3A56.9 56.9 0 1 1 58.6 1.4a56.8 56.8 0 0 1 56.8 56.9zM90 45.4a47.1 47.1 0 0 0-.9-5.2 16.6 16.6 0 0 0-15.5-13.1l-1.8-.3H45.4c-1.9.4-3.9.6-5.7 1.1a16.7 16.7 0 0 0-12.3 15.2 13.8 13.8 0 0 1-.3 2v26.4c.4 2 .6 4.1 1.2 6.1a16.5 16.5 0 0 0 15.2 11.8l2.2.4h25.8l5.3-1a16.6 16.6 0 0 0 12.9-15.5l.3-2.1z"/><path d="M58.5 47.9a10.3 10.3 0 0 0-10.3 10.3 10.3 10.3 0 0 0 10.4 10.5 10.4 10.4 0 1 0-.1-20.8z"/><path d="M72.3 32.8H44.8c-6.4.1-10.6 3.7-11.4 10.1s-.4 24.4-.3 29c.2 7.1 4.7 11.7 11.8 11.8 9.1.2 18.2.2 27.4 0 7-.1 11.6-4.6 11.7-11.6.2-9.2.2-18.4 0-27.5-.1-7.1-4.7-11.6-11.7-11.8zM58.6 74.5a16.2 16.2 0 1 1 16.1-16.3 16.1 16.1 0 0 1-16.1 16.3zm16.7-29.1a4 4 0 0 1-3.8-4 3.9 3.9 0 0 1 7.7.1 4 4 0 0 1-3.9 3.9z"/></svg>