<svg xmlns="http://www.w3.org/2000/svg" width="1.6in" height="1.6in" viewBox="0 0 116.9 116.9"><path d="M116.9 59.4a58.4 58.4 0 0 1-58.4 58.4h-1.3a58.5 58.5 0 1 1 59.6-61.3 28.1 28.1 0 0 1 .1 2.9zM97.5 40.5l-8.9 2.9.6-.4.4-.2.6-.6c2.7-2.5 4.7-8 4.9-8.4L87.2 38c-6.7-8.1-12.5-7.6-19.3-4.6s-6.8 15-6.8 15c-25.6-.6-32-12.1-32-12.1-7.3 11.9 4.7 19.4 4.7 19.4-1.9 0-6.9-2.2-6.9-2.2.3 6.6 5.4 11.1 10 13.8l1.9 1.1.7.3.5.3 2.5 1 .3.2.9.3-.3.2h-.6l-.4.2h-.1l-1.6.3a30.9 30.9 0 0 1-8.8-1.1 12.9 12.9 0 0 0 6.5 7.8l.7.3.6.3.8.3 2.5.8 1.5.3H46l-.9.6-.8.6-1.8 1a33 33 0 0 1-17.8 3.6l1.3.6 3.3 1.5 1.3.5 1.9.7 1.4.5 2.8.8 1 .3 2.8.7 1.1.2 1.4.3 1.5.2h2.6c12.2.8 22-3.7 31-11.9 13-11.8 12.1-32.3 12.1-32.3l1-.5.6-.5a52.5 52.5 0 0 0 5.7-7z"/></svg>