<svg xmlns="http://www.w3.org/2000/svg"><symbol id="check" viewBox="0 0 116.3 116.3"><circle cx="58.2" cy="58.2" r="58.2" fill="#7e0301"/><path fill="#fff" d="M88.9 35.1L65.3 76.3l-6.7 11.6-11.7-6.7-19.5-11.3L34 58.3l19.5 11.2 23.7-41.1 11.7 6.7z"/></symbol><symbol id="facebook" viewBox="0 0 600 600"><path fill="#862014" d="M600 300c0 165.7-134.3 300-300 300h-6.4C130.9 596.6 0 463.6 0 300 0 134.3 134.3 0 300 0c160.7 0 291.9 126.4 299.6 285.2.3 4.9.4 9.9.4 14.8zM355.7 175h41.7v-60.3h-59.5c-60 0-77.1 48.3-77.1 78.5v56.6h-58.2V318h58.2v167.3H329V318h56.8l8.8-68.2H329v-48.5c0-17.7 14-26.1 26.7-26.3z"/></symbol><symbol id="heart" viewBox="0 0 116.3 116.3"><circle cx="58.2" cy="58.2" r="58.2" fill="#7e0301"/><path fill="#fff" d="M72.4 83.8C-.9 66 45 29.6 59.1 53.6h.1c.2.2.3.4.1-.5s0-.2-.1-.3c-7.2-26.3 48.9-36.9 13.2 31z"/></symbol><symbol id="shake" viewBox="0 0 116.3 116.3"><circle cx="58.2" cy="58.2" r="58.2" fill="#7e0301"/><path fill="#fff" d="M82.9 84.7l-24.3 9.4L37 55.7l36.4-14 9.5 43zM69.8 34.3a18.8 18.8 0 0 0-34.7-.9 18.2 18.2 0 0 0-.4 14.3l1.1 2.8 35.1-13.4zm-30.3 8.4a13.7 13.7 0 0 1 1-6.9 13.5 13.5 0 0 1 7.1-6.8 15 15 0 0 1 4.7-.8 15 15 0 0 1 5.1 1.1 12.5 12.5 0 0 1 5.4 4.5z"/></symbol><symbol id="drink" viewBox="0 0 116.3 116.3"><circle cx="58.2" cy="58.2" r="58.2" fill="#7e0301"/><path fill="#fff" d="M76.6 28.1L30 44.6l22.8 43.6 33.5-12zM38.8 48L72 36.3l4.3 21.9H44z"/></symbol><symbol id="insta" viewBox="0 0 600 600"><path fill="#862014" d="M600 300c0 165.7-134.3 300-300 300S0 465.7 0 300 134.3 0 300 0s300 134.3 300 300zm-134-68c-1.6-9.2-2.5-18.5-4.7-27.5-9.8-40.2-40.7-65.9-81.9-68.9a78.5 78.5 0 0 1-9.7-1.6H230.3c-10 1.8-20.2 2.8-30 5.5-37 10.3-61.6 41.3-64.6 80.4-.3 3.5-1.1 6.9-1.7 10.4v139.4c2.1 10.7 3.3 21.8 6.4 32.2 11.1 36.4 42.2 60.2 80.2 62.4A112 112 0 0 1 232 466h136c9.5-1.6 19.1-2.7 28.4-4.9 39.1-9.5 65.6-41.6 67.9-81.8A106.1 106.1 0 0 1 466 368z"/><path fill="#862014" d="M299.7 245.1a54.5 54.5 0 0 0-54.6 54.2v.5c-.1 30.8 24.2 55.1 55.1 55.1a54.9 54.9 0 1 0-.5-109.8z"/><path fill="#862014" d="M372.3 165.7q-72.4-1.2-145 0c-33.8.5-56 19.4-60.2 53.1-3.3 26.5-2.1 128.9-1.5 153.1 1 37.4 25 61.8 62.4 62.4 48 .7 96.1.8 144.2 0 37-.6 61.4-24.7 62.1-61.7q1.2-72.6 0-145.1c-.7-37-25-61.2-62-61.8zm-72.1 219.6a85.4 85.4 0 1 1 85.1-85.7 85.3 85.3 0 0 1-85 85.6zm88.3-153.6c-11-.1-20.7-10-20.3-20.9a20.4 20.4 0 0 1 20.7-19.5 20.1 20.1 0 0 1 19.7 20.3c-.2 11-9.3 20.1-20.1 20.1z"/></symbol><symbol id="twitter" viewBox="0 0 600 600"><path fill="#862014" d="M600 300c0 165.7-134.3 300-300 300h-6.4C130.9 596.6 0 463.6 0 300 0 134.3 134.3 0 300 0c160.7 0 291.9 126.4 299.6 285.2.3 4.9.4 9.9.4 14.8zm-99.7-97.1l-45.6 14.8a20.2 20.2 0 0 0 3.2-1.8l1.8-1.1a27.9 27.9 0 0 0 3.2-2.8c14.1-13.2 24.4-41.3 25-43.1l-40.4 21.3c-34.1-41.7-63.9-39-99-23.4-40.2 17.9-34.9 77-34.9 77-131.2-3.3-164.1-62.3-164.1-62.3-37.8 60.9 23.8 99.4 23.8 99.4-9.4 0-35.1-11-35.1-11 1.4 33.8 27.8 56.9 51 70.7h.1l10 5.6 3.2 1.6 3 1.4c5 2.4 9.3 4.2 12.5 5.4l1.8.7 4.4 1.5-1.6 1-1.2.6-1.6.7-2.4.9h-.1a39.1 39.1 0 0 1-8.3 1.5c-19.6 1.8-45.4-5.7-45.4-5.7 6 20.3 19.6 32.6 33.4 40.1l3.7 1.9 3.2 1.5 3.9 1.5a124 124 0 0 0 13.1 4.1l7.7 1.6h.1l3 .4 2.3.3h1.9c-1.4 1.1-2.9 2.2-4.3 3.1l-4.4 3c-3 1.9-6 3.7-8.9 5.3-44.2 24.1-91.5 18.7-91.5 18.7l6.6 3c5.7 2.6 11.4 5.1 17 7.4q3.4 1.5 6.9 2.7c3.2 1.3 6.5 2.5 9.7 3.6s4.6 1.7 6.9 2.4c4.8 1.7 9.7 3.1 14.4 4.5l5 1.3c4.9 1.4 9.7 2.5 14.5 3.5l5.8 1.2 7.3 1.3 7.3 1 6.1.7c2.5.2 4.9.5 7.4.6 62.4 4.3 112.9-18.8 159.2-61 66.5-60.5 62.3-165.7 62.3-165.7a18.3 18.3 0 0 0 4.9-2.8l2.9-2.4c12.2-10.8 28.2-34.3 29.3-35.9z"/></symbol><symbol id="list" viewBox="0 0 116.3 116.3"><circle cx="58.2" cy="58.2" r="58.2" fill="#7e0301"/><path fill="#fff" d="M46.6 99.3L20.5 38l49.2-21 26.1 61.3zM31 42.3l19.7 46.5 34.6-14.7-19.7-46.6z"/><path fill="#fff" d="M45.1 40.9l18.1-7.8 1.7 4-18.1 7.7zm3.2 7.1l18.1-7.7 1.7 4L50 52zm3.1 7.3l18.1-7.7 1.7 3.9-18.1 7.8zm15.2 7l-5.4 16.3-1.5 4.6-4.6-1.6-7.7-2.5 1.5-4.6 7.7 2.5 5.3-16.2z"/></symbol><symbol id="slice" viewBox="0 0 116.9 116.9"><circle cx="58.5" cy="58.5" r="58.5" fill="#7e0301"/><path fill="#fff" d="M98.9 55.2a40.1 40.1 0 0 0-16.1-18.1 40.6 40.6 0 0 0-5.1-2.6A38.6 38.6 0 0 0 53 32.8l-2.7.8-2.7 1.1a38.4 38.4 0 0 0-18.3 16.6 41.2 41.2 0 0 0-2.4 5.2 40.5 40.5 0 0 0-1.4 24.2 24.7 24.7 0 0 0 1.1 3.6l73.7-25.6a36.5 36.5 0 0 0-1.4-3.5zM30.4 78a38.3 38.3 0 0 1 1.4-19.2l22.4 10.9zm27.8-12.7L34.1 53.6a32.8 32.8 0 0 1 15.4-13.7zM54.9 38a31.8 31.8 0 0 1 20.5 1.2L63.7 63.4zm14.7 26.3l10.9-22.4A39.9 39.9 0 0 1 93.3 56z"/></symbol><symbol id="star" viewBox="0 0 116.3 116.3"><circle cx="58.2" cy="58.2" r="58.2" fill="#7e0301"/><path fill="#fff" d="M72.8 90.2c-9.7-19.6-28.1-25.4-43.3-18.9 14.8-7.5 22.4-25.1 13.8-45.2 9.8 19.7 28.3 25.4 43.5 18.8-14.9 7.4-22.6 25.1-14 45.3z"/></symbol></svg>