<svg id="Layer_1" data-name="Layer 1" xmlns="http://www.w3.org/2000/svg" width="64" height="64" viewBox="0 0 64 64"><title>logo-64</title><rect width="64" height="64" fill="#89191b"/><path d="M49.7,18.6c-1.2,4.5-30,3.7-30.4.2s13.2-2.5,14.9-2.5,14.6-.5,15.5,2.7a.8.8,0,0,0,1.6-.4c-1.4-4.7-14.7-3.8-18-3.8s-16.2-.3-16.1,4,12.8,4,15.2,4.1,17.4,1,18.9-3.9C51.5,18.1,50,17.7,49.7,18.6Z" fill="#fff"/><path d="M18.8,39.9V18.8a.8.8,0,0,0-1.6,0V39.9a.8.8,0,0,0,1.6,0Z" fill="#fff"/><path d="M51.3,40.3V18.8a.8.8,0,0,0-1.6,0V40.3a.8.8,0,0,0,1.6,0Z" fill="#fff"/><path d="M17.2,39.9c.5,10.6,11.6,15.4,20.9,15.7a.8.8,0,0,0,0-1.6c-8.4-.2-18.9-4.4-19.3-14.1-.1-1-1.6-1-1.6,0Z" fill="#fff"/><path d="M33.9,37.6c-3.1-1.6-12.3-5.6-13.6.1S31.6,39.9,33.7,39s.5-1.9-.4-1.5-12.5,5.1-11.4.6,9.1-.2,11.2.8S34.8,38.1,33.9,37.6Z" fill="#fff"/><path d="M34.8,39.5C32,40,21.5,42,23.5,46.6c2.9,6.5,10.6-3.8,12.1-5.9s-.7-1.6-1.3-.8-4.4,6.9-7.6,7.1a1.8,1.8,0,0,1-1.8-1.1c-.6-2.9,8.2-4.5,10.3-4.9S35.7,39.3,34.8,39.5Z" fill="#fff"/><path d="M36,42c-1.8,1.7-7.8,7.4-3.9,9.5a3.2,3.2,0,0,0,3.5-.1c2.5-1.8,1.9-6.3,1.7-8.9-.1-.9-1.6-1-1.6,0s.7,10-2.9,7.6c-1.8-1.2,3.2-6,4.3-7A.8.8,0,0,0,36,42Z" fill="#fff"/></svg>