<svg xmlns="http://www.w3.org/2000/svg"><symbol id="check" viewBox="0 0 116.9 116.9"><circle cx="58.5" cy="58.5" r="58.5"/><path fill="#fff" d="M90.2 35.3L66.4 76.7l-6.7 11.7-11.8-6.8-19.6-11.3L35 58.6l19.6 11.3 23.8-41.4 11.8 6.8z"/></symbol><symbol id="fruit" viewBox="0 0 116.9 116.9"><circle cx="58.5" cy="58.5" r="58.5"/><path fill="#fff" d="M98.9 55.2a40.1 40.1 0 0 0-16.1-18.1 40.6 40.6 0 0 0-5.1-2.6A38.6 38.6 0 0 0 53 32.8l-2.7.8-2.7 1.1a38.4 38.4 0 0 0-18.3 16.6 41.2 41.2 0 0 0-2.4 5.2 40.5 40.5 0 0 0-1.4 24.2 24.7 24.7 0 0 0 1.1 3.6l73.7-25.6a36.5 36.5 0 0 0-1.4-3.5zM30.4 78a38.3 38.3 0 0 1 1.4-19.2l22.4 10.9zm27.8-12.7L34.1 53.6a32.8 32.8 0 0 1 15.4-13.7zM54.9 38a31.8 31.8 0 0 1 20.5 1.2L63.7 63.4zm14.7 26.3l10.9-22.4A39.9 39.9 0 0 1 93.3 56z"/></symbol><symbol id="drink" viewBox="0 0 116.9 116.9"><circle cx="58.5" cy="58.5" r="58.5"/><path fill="#fff" d="M75.6 28L28.7 44.5l22.9 43.8 33.7-11.9zM37.5 48l33.4-11.8 4.4 22H42.8z"/></symbol><symbol id="heart" viewBox="0 0 116.9 116.9"><circle cx="58.5" cy="58.5" r="58.5"/><path fill="#fff" d="M70.8 84.2C-3 66.2 43.3 29.6 57.4 53.8h.1c0 .1.1.1.1.2s.3.4.1-.5a.3.3 0 0 1-.1-.2c-7.3-26.7 49.1-37.4 13.2 30.9zM56.5 48.3z"/></symbol><symbol id="hint" viewBox="0 0 116.9 116.9"><circle cx="58.5" cy="58.5" r="58.5"/><path fill="#fff" d="M71.7 90.7C62 71 43.5 65.1 28.2 71.6a.1.1 0 0 0-.1.1h.1c14.9-7.4 22.5-25.2 13.9-45.4 9.8 19.8 28.4 25.6 43.8 19-15.1 7.2-22.8 25.1-14.2 45.4z"/><path fill="#fff" d="M28.2 71.6h-.1a.1.1 0 0 1 .1 0z"/></symbol><symbol id="shopping-list" viewBox="0 0 116.9 116.9"><circle cx="58.5" cy="58.5" r="58.5"/><path fill="#fff" d="M46.8 98.7L20.6 37.2l49.5-21.1 26.2 61.6zM31.1 41.4L51 88.2l34.8-14.8-19.9-46.8z"/><path fill="#fff" d="M46.223 38.569L64.436 30.8l1.706 4.002L47.93 42.57zm3.077 7.106l18.212-7.768 1.707 4.001-18.213 7.768zm3.176 7.207l18.212-7.769 1.707 4.002-18.212 7.768zM67.6 59.9l-5.4 16.4-1.5 4.6-4.6-1.6-7.8-2.5 1.6-4.6 7.7 2.5L63 58.4l4.6 1.5z"/></symbol><symbol id="facebook" viewBox="0 0 116.9 116.9"><path d="M115.3 58.3a56.8 56.8 0 0 1-56.8 56.9h-1.3a56.9 56.9 0 1 1 58-59.7 26.2 26.2 0 0 1 .1 2.8zM69 34.6h7.9V23.2H65.6C54.3 23.2 51 32.3 51 38.1v10.7H40v12.9h11v31.7h12.9V61.7h10.8l1.7-12.9H63.9v-9.2a4.9 4.9 0 0 1 5.1-5z"/></symbol><symbol id="insta" viewBox="0 0 116.9 116.9"><path d="M115.4 58.3A56.9 56.9 0 1 1 58.6 1.4a56.8 56.8 0 0 1 56.8 56.9zM90 45.4a47.1 47.1 0 0 0-.9-5.2 16.6 16.6 0 0 0-15.5-13.1l-1.8-.3H45.4c-1.9.4-3.9.6-5.7 1.1a16.7 16.7 0 0 0-12.3 15.2 13.8 13.8 0 0 1-.3 2v26.4c.4 2 .6 4.1 1.2 6.1a16.5 16.5 0 0 0 15.2 11.8l2.2.4h25.8l5.3-1a16.6 16.6 0 0 0 12.9-15.5l.3-2.1z"/><path d="M58.5 47.9a10.3 10.3 0 0 0-10.3 10.3 10.3 10.3 0 0 0 10.4 10.5 10.4 10.4 0 1 0-.1-20.8z"/><path d="M72.3 32.8H44.8c-6.4.1-10.6 3.7-11.4 10.1s-.4 24.4-.3 29c.2 7.1 4.7 11.7 11.8 11.8 9.1.2 18.2.2 27.4 0 7-.1 11.6-4.6 11.7-11.6.2-9.2.2-18.4 0-27.5-.1-7.1-4.7-11.6-11.7-11.8zM58.6 74.5a16.2 16.2 0 1 1 16.1-16.3 16.1 16.1 0 0 1-16.1 16.3zm16.7-29.1a4 4 0 0 1-3.8-4 3.9 3.9 0 0 1 7.7.1 4 4 0 0 1-3.9 3.9z"/></symbol><symbol id="shaker" viewBox="0 0 116.9 116.9"><circle cx="58.5" cy="58.5" r="58.5"/><path fill="#fff" d="M83.6 85.6l-24.5 9.3-21.8-38.5L74 42.3l9.6 43.3zM70.4 34.8A19 19 0 0 0 46 23.9a19 19 0 0 0-10.9 24.4l1 2.8 35.3-13.5zm-30.5 8.5a13.9 13.9 0 0 1 1-7 13.3 13.3 0 0 1 7.2-6.8 14.8 14.8 0 0 1 4.6-.8 14 14 0 0 1 5.3 1.1 13.1 13.1 0 0 1 5.4 4.5z"/></symbol><symbol id="twitter" viewBox="0 0 116.9 116.9"><path d="M116.9 59.4a58.4 58.4 0 0 1-58.4 58.4h-1.3a58.5 58.5 0 1 1 59.6-61.3 28.1 28.1 0 0 1 .1 2.9zM97.5 40.5l-8.9 2.9.6-.4.4-.2.6-.6c2.7-2.5 4.7-8 4.9-8.4L87.2 38c-6.7-8.1-12.5-7.6-19.3-4.6s-6.8 15-6.8 15c-25.6-.6-32-12.1-32-12.1-7.3 11.9 4.7 19.4 4.7 19.4-1.9 0-6.9-2.2-6.9-2.2.3 6.6 5.4 11.1 10 13.8l1.9 1.1.7.3.5.3 2.5 1 .3.2.9.3-.3.2h-.6l-.4.2h-.1l-1.6.3a30.9 30.9 0 0 1-8.8-1.1 12.9 12.9 0 0 0 6.5 7.8l.7.3.6.3.8.3 2.5.8 1.5.3H46l-.9.6-.8.6-1.8 1a33 33 0 0 1-17.8 3.6l1.3.6 3.3 1.5 1.3.5 1.9.7 1.4.5 2.8.8 1 .3 2.8.7 1.1.2 1.4.3 1.5.2h2.6c12.2.8 22-3.7 31-11.9 13-11.8 12.1-32.3 12.1-32.3l1-.5.6-.5a52.5 52.5 0 0 0 5.7-7z"/></symbol></svg>