<svg id="Layer_1" data-name="Layer 1" xmlns="http://www.w3.org/2000/svg" width="16" height="16" viewBox="0 0 16 16"><title>logo-16</title><rect width="16" height="16" fill="#89191b"/><path d="M12.4,4.7c-.4,1.1-7.2.8-7.2,0s6.8-1.1,7.2.1.5.1.4-.1-8.5-1.5-8.5,0,8,1.6,8.5.1S12.5,4.4,12.4,4.7Z" fill="#fff"/><path d="M4.7,10V4.7c0-.2-.4-.2-.4,0V10c0,.2.4.2.4,0Z" fill="#fff"/><path d="M12.8,10.1V4.7c0-.2-.4-.2-.4,0v5.4c0,.2.4.2.4,0Z" fill="#fff"/><path d="M4.3,10c.1,2.6,2.9,3.8,5.2,3.9a.2.2,0,1,0,0-.4c-2.1-.1-4.7-1.1-4.8-3.5a.2.2,0,1,0-.4,0Z" fill="#fff"/><path d="M8.5,9.4C7.7,9,5.4,8,5.1,9.4s2.8.6,3.3.4.2-.5-.1-.4-3.1,1.2-2.8.1,2.2,0,2.8.2S8.7,9.5,8.5,9.4Z" fill="#fff"/><path d="M8.7,9.9c-.7.1-3.3.6-2.8,1.8s2.6-1,3-1.5-.2-.4-.3-.2-1.1,1.7-1.9,1.8a.9.9,0,0,1-.5-.3c-.1-.8,2.1-1.1,2.6-1.2S8.9,9.8,8.7,9.9Z" fill="#fff"/><path d="M9,10.5c-.4.4-2,1.8-1,2.4a1,1,0,0,0,.9,0c.6-.5.5-1.6.4-2.3s-.4-.2-.4,0,.2,2.6-.7,1.9S9,11,9.3,10.8A.2.2,0,0,0,9,10.5Z" fill="#fff"/></svg>