<svg id="Layer_1" data-name="Layer 1" xmlns="http://www.w3.org/2000/svg" width="1728" height="1728" viewBox="0 0 1728 1728"><title>logo</title><rect width="1728" height="1728" fill="#89191b"/><path d="M1259.7,446.1a8.6,8.6,0,0,0-.1,1.6c0,1.7,1.4-6.2.4-3.4a9.4,9.4,0,0,0-.4,1.6c-.8,4,.4-2.7,1.2-2.5s-1.5,2.8-1.6,3.1a13,13,0,0,0-1,1.5c-1.9,3,3.7-4.4,1.3-1.8a78.2,78.2,0,0,1-6.6,6.3c-2.1,1.8,4.9-3.5,1.6-1.3l-2,1.4-5.1,3.2a112.9,112.9,0,0,1-10.9,5.7l-6.4,2.9c0,.1,5.2-2.1,2.4-1l-1.6.7-3.7,1.4a335.3,335.3,0,0,1-32.2,10.4c-28.3,7.9-57.2,13.3-86.2,17.7l-11.7,1.7c-1.8.2-4.3.1-6,.8.5-.2,4.6-.6.8-.1l-4.6.6-26,3.1q-28.5,3-57,5.1A1985.1,1985.1,0,0,1,752,506.6c-37.7-2.1-75.3-5.3-112.8-10.2l-3.1-.4c-3.8-.5.3-.1.8.1-1.7-.7-4.2-.6-6-.8l-13.2-2c-7.9-1.2-15.9-2.5-23.8-3.9-14.2-2.5-28.4-5.4-42.4-8.7-12-2.9-24-6.1-35.8-9.9q-7.7-2.6-15.3-5.4l-3.3-1.3-1.6-.7c-2.8-1.1,2.4,1.1,2.4,1-2.2-1.1-4.6-2-6.8-3-3.8-1.8-7.5-3.8-11.1-5.9l-4.5-2.9-2-1.4c-3.4-2.3,4.1,3.5,1.2.9a77.6,77.6,0,0,1-6.5-6.3c-1.8-1.8,3.5,5.1,1.6,2.2l-1-1.5c-.7-1.1-2.5-5.3-.7-1.1s.3.2-.1-1.1.2,4.8.4,3.4a5.5,5.5,0,0,0-.1-1.8,7.6,7.6,0,0,0,.1-1.5c0-1-1.3,6.5-.4,3.3s2.2-3.7-.7.9c.6-.9,1-2,1.7-3l1-1.5c1.4-2.4-3.9,4.5-1.5,1.9s4.3-4.2,6.6-6.2-4.8,3.4-1.6,1.3l2-1.5,5.1-3.2c3.6-2.1,7.4-4.1,11.2-5.9,2-.9,4.1-1.7,6.1-2.7-7.1,3.3,1.4-.5,3.3-1.2,5.1-2,10.3-3.8,15.5-5.4,25.6-8.3,52.1-13.9,78.6-18.6,7.9-1.4,15.9-2.7,23.9-3.9l11.7-1.7,6-.9h-.8l4.6-.6c18.2-2.3,36.5-4.2,54.8-5.9,83.2-7.4,167-8.8,250.4-5.5,39.1,1.6,78.1,4.3,117,8.5l25.9,3.1,3.8.5h-.8l6,.9,12.5,1.8c15.4,2.4,30.8,5.1,46.1,8.2,24.2,5,48.5,11,71.6,19.9l3.3,1.4,1.6.6-2.4-1,6.8,3c3.6,1.8,7.2,3.7,10.7,5.8q2.4,1.3,4.8,3l2,1.4c2.7,1.9-4.4-3.7-1.5-1.1s4.3,4.3,6.5,6.3-3.4-5-1.6-2.1a13,13,0,0,0,1,1.5c.6,1,1,2.1,1.6,3-3.6-5.8-1.7-3.8-.8-1.1s-.8-4.8-.4-3.3,0,1.2.1,1.7c.1,10.5,9.1,20.5,20,20s20.1-8.8,20-20c-.3-18.7-13.8-32.5-28.6-42.1-18.1-11.7-39.6-18.8-60.2-24.8-28.5-8.2-57.8-13.9-87.1-18.4-38.2-6-76.6-10.1-115.2-13a1947.7,1947.7,0,0,0-260.2-1.9C677.2,350,605,357.1,535.6,374.3c-23.3,5.7-46.7,12.9-68.2,23.7-15.6,7.9-31.4,19.4-37.2,36.6s2.2,33.8,14.9,44.7c15.8,13.7,35.7,21.8,55.3,28.5,26,8.9,53.1,14.8,80.2,19.7,36,6.5,72.5,11.1,109,14.5,86,8,172.8,9.5,259.1,5.9,74.7-3.1,150.1-9.6,223.4-25.2,24.4-5.3,48.8-11.5,71.9-21.1,18.1-7.5,36.8-16.5,48.4-33a40.5,40.5,0,0,0,7.3-22.5c.1-10.4-9.3-20.5-20-20S1259.8,434.9,1259.7,446.1Z" fill="#fff"/><path d="M468.3,985V512.2c0-21.7.5-43.4,0-65.2v-.9c0-10.4-9.2-20.5-20-20s-20,8.8-20,20V918.9c0,21.7-.5,43.5,0,65.2a2.7,2.7,0,0,1,0,.9c0,10.5,9.2,20.5,20,20s20-8.8,20-20Z" fill="#fff"/><path d="M1299.7,994.5V513.3c0-22,.5-44.2,0-66.2a3.4,3.4,0,0,1,0-1c0-10.4-9.2-20.5-20-20s-20,8.8-20,20V927.2c0,22.1-.6,44.2,0,66.3v1c0,10.4,9.2,20.4,20,20s20-8.8,20-20Z" fill="#fff"/><path d="M428.3,985c.1,43.9,9.9,86.5,27.3,126.7s42.6,75.6,72.3,106.8c32.2,33.8,70.3,62.4,110.8,85.5,43.9,25.1,91.4,44.1,140.1,57.4a692.1,692.1,0,0,0,161.9,23.7q10.3.3,20.7.3c10.5,0,20.5-9.2,20-20s-8.7-20-20-20a694.3,694.3,0,0,1-80.2-4.6l-9.9-1.2,1.5.2c-.2.2-2-.3-2.3-.3l-5.3-.8c-6.3-.9-12.6-2-18.8-3.1-12.6-2.2-25.1-4.8-37.6-7.8a620.3,620.3,0,0,1-71.9-21.8c-5.6-2.1-11.1-4.2-16.6-6.5l-4-1.6-2.6-1.1,1.6.7-8.4-3.7c-10.8-4.8-21.4-10-31.8-15.4a519.8,519.8,0,0,1-58.5-35.8l-13.7-10.1c-1.8-1.3,1.5,1.2,1.5,1.1a8.3,8.3,0,0,1-1.6-1.2l-3-2.4-6.5-5.3q-12.6-10.4-24.3-21.6t-22.5-23.4q-5.1-5.7-9.9-11.7l-4.6-5.7-1.5-1.9c-.1-.1,2.6,3.4,1.3,1.6l-2.6-3.4a334.2,334.2,0,0,1-31.9-51.7c-2.3-4.5-4.5-9.1-6.5-13.8-.5-1.1-.9-2.2-1.4-3.2s1.7,4.1.9,2.1-.5-1.1-.7-1.7l-2.8-7a305.7,305.7,0,0,1-15.4-57.3l-.6-3.5-.3-2.3c-.4-2.2.3,2.7.3,2.4-.2-2.5-.6-5-.9-7.5-.5-4.9-.9-9.8-1.1-14.7s-.4-10.2-.5-15.4c0-10.4-9.1-20.5-20-20s-20,8.8-20,20Z" fill="#fff"/><path d="M854.6,926c-12.5-6.5-25.4-12.4-38.4-18.1-30.2-13.3-61-25.3-92.6-34.7-34.3-10.2-70.5-18.1-106.4-17.4-32.3.6-67.5,9.1-89.3,34.8-8.8,10.4-16.1,22.4-19.2,35.8-2.2,9.7-3.5,20-2.5,30,1.5,16.2,6.9,30.6,17.6,43,12.1,14,30.7,22,48.5,25.3,30.4,5.7,61.5,2.4,91.7-3,48.2-8.6,95.1-24.3,140.9-41.4q22.5-8.5,44.9-17.7c9.6-4,17.6-13.5,14-24.6-3.1-9.3-14.3-18.3-24.6-14-50.1,20.5-101.2,39.4-153.9,52.3-9.3,2.3-18.8,4.4-28.3,6.2-4.3.8-8.7,1.6-13.1,2.2l-6.2,1c-1.4.2,5.3-.7,1.5-.3l-3.2.4a233,233,0,0,1-40.9,1.7l-8.1-.7-2.1-.2,2.9.4-3.8-.6a104.8,104.8,0,0,1-13.4-3.3l-5.8-2.1c1,.3,5.5,2.4,1.9.7l-2.7-1.3a48.3,48.3,0,0,1-4.5-2.6l-2.2-1.4-.9-.7c-2.4-1.6,2.6,1.9,2.7,2.1s-2.9-2.4-3.6-3.1a33.4,33.4,0,0,1-3.2-3.3,9.3,9.3,0,0,0-1.3-1.5c-1.4-1.5,3.6,5,2.2,2.8l-.7-.9c-.8-1.2-1.6-2.4-2.3-3.6a38.4,38.4,0,0,1-1.8-3.5,10.1,10.1,0,0,0-.9-1.8c1,1,2.4,6.1,1.2,2.6s-1.6-4.9-2.2-7.4l-.6-3.8c-.4-1.8.7,6.9.4,3.4a13.6,13.6,0,0,0-.2-2c-.2-2.3-.2-4.6-.2-6.9s.2-4.4.4-6.6c0-.4.1-.9.1-1.4.4-3.6-.6,4.2-.5,3.5s.3-1.8.5-2.8a76.8,76.8,0,0,1,1.9-8.3c.2-.8.5-1.5.7-2.3.6-2.8-2.5,5.2-.5,1a87.6,87.6,0,0,1,5.2-9.5c.9-1.4,2.1-2.7,2.9-4.2s-3.4,4.1-1.1,1.6l1.7-2.1a66,66,0,0,1,7.1-6.9l1.8-1.5a20.2,20.2,0,1,0-1.6,1.3l4.4-3c2.9-1.7,5.8-3.2,8.8-4.7s-.7.4-1.9.8l2.2-.9a53.4,53.4,0,0,1,5.2-1.8,89.4,89.4,0,0,1,9.8-2.7l5.3-1,2.5-.4c4-.7-2.2.2-1.5.1a225.7,225.7,0,0,1,47.2.2l5.8.7-1.5-.2,3.4.5,12.6,2.2c8.5,1.6,17,3.5,25.4,5.6,31.5,8,62.3,19,92.3,31.5l2.3.9-1.9-.8,4.7,2,8.7,3.8,15.1,6.9c6.2,2.9,12.4,5.9,18.5,9l2.5,1.3c9.2,4.8,22.1,2.6,27.3-7.2S864.5,931.2,854.6,926Z" fill="#fff"/><path d="M876.9,975.2c-12.4,2.3-24.8,5.1-37.1,7.9-28.3,6.5-56.4,14-84.1,22.6-32.7,10.2-65.2,22-95.7,37.6-25.1,12.7-51.8,29.2-66.8,53.9-9.4,15.5-12.7,35.4-5.9,52.6a102.1,102.1,0,0,0,15.9,27,82.6,82.6,0,0,0,35.2,25.4c17.8,7,38.5,5.8,56.5.3,29.1-8.8,54.5-27.2,77.2-46.9,37.8-32.7,69.5-72,99.3-111.9,9.6-12.9,18.9-25.9,28.1-39.1,6-8.7,1.9-22.6-7.2-27.4s-21-2-27.3,7.2c-9.2,13.2-18.5,26.2-28.1,39.1l-6.4,8.4-3.1,4.1c-1.4,1.8.3-.4.5-.7l-2,2.7c-4.4,5.5-8.7,11-13.2,16.5a687.7,687.7,0,0,1-47,52.5c-6.8,6.8-13.8,13.3-21,19.6l-9.7,8.2c-1.5,1.2-3.1,2.3-4.6,3.6,1.5-1.2,3.6-2.7,1.1-.9l-2.5,1.9a197.5,197.5,0,0,1-34.1,20.7c-1,.5-5.5,2.4-1.5.7s-.9.3-2,.7l-7.1,2.5c-4.4,1.3-8.8,2-13.3,3-1.4.3,6.3-.7,3.3-.5l-1.4.2-3.1.2c-2,.1-4,.2-6,.1l-5.4-.4c-1.8-.1,6.5,1.1,2.3.3l-2.6-.5a78.4,78.4,0,0,1-9.4-2.9c-2.7-1,5.8,2.7,2.4,1l-2.1-1-4-2.2-3.6-2.4a9.5,9.5,0,0,0-1.6-1.2c-.2,0,4.9,4,3,2.3l-1-.8a74.1,74.1,0,0,1-5.8-5.4,35.8,35.8,0,0,1-2.6-2.9c-.9-1-3.8-4.8-.8-.9s.1.1-.6-1l-1.8-2.6a92.7,92.7,0,0,1-5.1-9.2c-.3-.6-.5-1.2-.8-1.7-1.4-2.9,2.3,6,1.4,3.4-.1-.5-.4-1-.5-1.5s-.7-2.1-1-3.1-.4-2.5-.8-3.6c-.6-2.6.5,5.6.5,3.1a13.6,13.6,0,0,1-.2-2c0-.6-.2-6.7.2-6.7s-1.1,6.3-.3,3.1l.3-1.6c.3-1.2.6-2.4,1-3.7s.6-2.6,1.2-3.1-2.6,5.6-1.1,2.7l.8-1.8a70.6,70.6,0,0,1,4-6.5l1.1-1.5c1.8-2.6-2.5,2.9-1.6,2s1.8-2.1,2.7-3.1,3.9-4.3,6-6.3,4.4-4,6.7-5.8l1.7-1.4c2.7-2.1-2.7,2-1.6,1.3s2.6-2,4-2.9c5.6-4,11.4-7.7,17.3-11.1s13-7.1,19.7-10.4l10.7-5,5.1-2.3,2.6-1.1,1.3-.5-2.2.9q22.7-9.3,45.7-17.1c28.5-9.5,57.5-17.6,86.7-24.7,16.4-4,32.9-7.8,49.5-11l2.3-.5c10.3-1.9,17.1-14.9,14-24.6S888,973.1,876.9,975.2Z" fill="#fff"/><path d="M908.2,1038.6a809.9,809.9,0,0,0-74.5,80.5c-17.2,21.4-34.4,43.8-46.2,68.7-10.3,21.5-18.7,47.9-6.2,70.3,9.3,16.7,32.6,27.5,50.3,32.5,29.4,8.2,61.1,1.2,80.7-23.3,15-18.6,23.1-41.5,27.5-64.8,7-37.4,7.3-75.8,5.2-113.7q-1.1-18-2.7-36c-1-10.4-8.5-20.6-20-20-10,.4-21,8.8-20,20,3.7,40.1,5.8,80.9,1.5,121.1a49.5,49.5,0,0,1-.6,5.4c-.1,1-.2,2.1-.4,3.1s.8-5.4.3-2.2-1.1,7.1-1.7,10.7c-1.2,6.1-2.5,12.2-4.2,18.2a142.8,142.8,0,0,1-5.1,15.2c-1.9,4.9,1.4-3,.4-.9l-1.4,3c-1,2.2-2.1,4.2-3.2,6.3s-2,3.4-3.1,5l-1.6,2.4a10.5,10.5,0,0,0-.8,1.1c-1.9,2.7,3.5-4.3,1.7-2.1a87.4,87.4,0,0,1-7.2,7.7l-1.8,1.5c-3,2.6,3.7-2.6,1.9-1.4l-4,2.7-3.8,2-1.8.9c-.8.4,6.1-2.3,2.1-.9a52.4,52.4,0,0,1-8,2.2l-1.9.4c-3.2.6,6.4-.7,3.1-.4l-4.2.3a65.4,65.4,0,0,1-7.7-.2l-1.9-.2c-3.7-.3,5.5.9,3.2.4l-3.7-.6a76.4,76.4,0,0,1-13.4-3.9l-2.9-1.1c-2.9-1.1,5.6,2.5,3.2,1.4l-1.4-.7-4.9-2.3c-4.5-2.3-8.5-5.3-12.9-7.7,5.8,3.2,3.2,2.5,1.5.9s-1.2-1.3-1.9-1.9c-2.6-2.7,3.1,4.7,1.3,1.5-.6-.9-1.1-1.8-1.6-2.7s-.7-1.4-.7-1.4,1.9,5.3,1.5,3.4-.6-1.7-.8-2.6a19.8,19.8,0,0,1-.6-2.6c-.7-2.7.5,6.1.4,3.2,0-.6-.1-1.1-.1-1.7a36.2,36.2,0,0,1,0-5.7c.2-2.2,1.2-5.8-.3,1.6l.6-3.7a94.3,94.3,0,0,1,4.2-14c.4-1.2,1-2.3,1.4-3.5-2.6,7.1-.9,2.1-.2.5l3.9-7.9c2.8-5.4,5.8-10.6,9-15.8,6.9-11.1,14.6-21.7,22.5-32.1l-1.4,1.8c.7-.7,1.2-1.6,1.8-2.3l3-3.8,6.6-8.2c4.2-5.1,8.5-10.1,12.8-15.1,8-9.2,16.2-18.1,24.5-27,10.2-10.8,20.6-21.4,31.3-31.6l1.6-1.6c7.7-7.2,7.8-21.1,0-28.3S916.3,1030.9,908.2,1038.6Z" fill="#fff"/></svg>