<svg xmlns="http://www.w3.org/2000/svg" width="600" height="600" viewBox="0 0 600 600"><path fill="#862014" d="M600 300c0 165.7-134.3 300-300 300S0 465.7 0 300 134.3 0 300 0s300 134.3 300 300zm-134-68c-1.6-9.2-2.5-18.5-4.7-27.5-9.8-40.2-40.7-65.9-81.9-68.9a78.5 78.5 0 0 1-9.7-1.6H230.3c-10 1.8-20.2 2.8-30 5.5-37 10.3-61.6 41.3-64.6 80.4-.3 3.5-1.1 6.9-1.7 10.4v139.4c2.1 10.7 3.3 21.8 6.4 32.2 11.1 36.4 42.2 60.2 80.2 62.4A112 112 0 0 1 232 466h136c9.5-1.6 19.1-2.7 28.4-4.9 39.1-9.5 65.6-41.6 67.9-81.8A106.1 106.1 0 0 1 466 368z"/><path fill="#862014" d="M299.7 245.1a54.5 54.5 0 0 0-54.6 54.2v.5c-.1 30.8 24.2 55.1 55.1 55.1a54.9 54.9 0 1 0-.5-109.8z"/><path fill="#862014" d="M372.3 165.7q-72.4-1.2-145 0c-33.8.5-56 19.4-60.2 53.1-3.3 26.5-2.1 128.9-1.5 153.1 1 37.4 25 61.8 62.4 62.4 48 .7 96.1.8 144.2 0 37-.6 61.4-24.7 62.1-61.7q1.2-72.6 0-145.1c-.7-37-25-61.2-62-61.8zm-72.1 219.6a85.4 85.4 0 1 1 85.1-85.7 85.3 85.3 0 0 1-85 85.6zm88.3-153.6c-11-.1-20.7-10-20.3-20.9a20.4 20.4 0 0 1 20.7-19.5 20.1 20.1 0 0 1 19.7 20.3c-.2 11-9.3 20.1-20.1 20.1z"/></svg>