<svg xmlns="http://www.w3.org/2000/svg" width="600" height="600" viewBox="0 0 600 600"><path fill="#862014" d="M600 300c0 165.7-134.3 300-300 300h-6.4C130.9 596.6 0 463.6 0 300 0 134.3 134.3 0 300 0c160.7 0 291.9 126.4 299.6 285.2.3 4.9.4 9.9.4 14.8zm-99.7-97.1l-45.6 14.8a20.2 20.2 0 0 0 3.2-1.8l1.8-1.1a27.9 27.9 0 0 0 3.2-2.8c14.1-13.2 24.4-41.3 25-43.1l-40.4 21.3c-34.1-41.7-63.9-39-99-23.4-40.2 17.9-34.9 77-34.9 77-131.2-3.3-164.1-62.3-164.1-62.3-37.8 60.9 23.8 99.4 23.8 99.4-9.4 0-35.1-11-35.1-11 1.4 33.8 27.8 56.9 51 70.7h.1l10 5.6 3.2 1.6 3 1.4c5 2.4 9.3 4.2 12.5 5.4l1.8.7 4.4 1.5-1.6 1-1.2.6-1.6.7-2.4.9h-.1a39.1 39.1 0 0 1-8.3 1.5c-19.6 1.8-45.4-5.7-45.4-5.7 6 20.3 19.6 32.6 33.4 40.1l3.7 1.9 3.2 1.5 3.9 1.5a124 124 0 0 0 13.1 4.1l7.7 1.6h.1l3 .4 2.3.3h1.9c-1.4 1.1-2.9 2.2-4.3 3.1l-4.4 3c-3 1.9-6 3.7-8.9 5.3-44.2 24.1-91.5 18.7-91.5 18.7l6.6 3c5.7 2.6 11.4 5.1 17 7.4q3.4 1.5 6.9 2.7c3.2 1.3 6.5 2.5 9.7 3.6s4.6 1.7 6.9 2.4c4.8 1.7 9.7 3.1 14.4 4.5l5 1.3c4.9 1.4 9.7 2.5 14.5 3.5l5.8 1.2 7.3 1.3 7.3 1 6.1.7c2.5.2 4.9.5 7.4.6 62.4 4.3 112.9-18.8 159.2-61 66.5-60.5 62.3-165.7 62.3-165.7a18.3 18.3 0 0 0 4.9-2.8l2.9-2.4c12.2-10.8 28.2-34.3 29.3-35.9z"/></svg>